<?xml version="1.0" encoding="UTF-8" standalone="no"?>
<!-- Created with Inkscape (http://www.inkscape.org/) -->
<svg
   xmlns:dc="http://purl.org/dc/elements/1.1/"
   xmlns:cc="http://creativecommons.org/ns#"
   xmlns:rdf="http://www.w3.org/1999/02/22-rdf-syntax-ns#"
   xmlns:svg="http://www.w3.org/2000/svg"
   xmlns="http://www.w3.org/2000/svg"
   xmlns:xlink="http://www.w3.org/1999/xlink"
   xmlns:sodipodi="http://sodipodi.sourceforge.net/DTD/sodipodi-0.dtd"
   xmlns:inkscape="http://www.inkscape.org/namespaces/inkscape"
   version="1.0"
   width="48"
   height="48"
   id="svg11300"
   sodipodi:version="0.32"
   inkscape:version="0.46"
   sodipodi:docname="reinteract.svg"
   inkscape:output_extension="org.inkscape.output.svg.inkscape">
  <metadata
     id="metadata133">
    <rdf:RDF>
      <cc:Work
         rdf:about="">
        <dc:format>image/svg+xml</dc:format>
        <dc:type
           rdf:resource="http://purl.org/dc/dcmitype/StillImage" />
      </cc:Work>
    </rdf:RDF>
  </metadata>
  <sodipodi:namedview
     inkscape:cy="17.022978"
     inkscape:cx="9.0448229"
     inkscape:zoom="6.9465337"
     inkscape:window-height="687"
     inkscape:window-width="1068"
     inkscape:pageshadow="2"
     inkscape:pageopacity="0.0"
     guidetolerance="10.0"
     gridtolerance="10.0"
     objecttolerance="10.0"
     borderopacity="1.0"
     bordercolor="#666666"
     pagecolor="#ffffff"
     id="base"
     showgrid="false"
     inkscape:window-x="74"
     inkscape:window-y="178"
     inkscape:current-layer="svg11300" />
  <defs id="defs3">
  </defs>
  <path
     style="font-size:48px;font-style:italic;font-variant:normal;font-weight:bold;font-stretch:normal;text-align:center;line-height:100%;writing-mode:lr-tb;text-anchor:middle;fill:#880000;fill-opacity:1;font-family:URW Chancery L;-inkscape-font-specification:URW Chancery L Bold Italic;stroke:none"
     d="M 1.1585413,34.420071 C 3.7025388,34.468071 3.7025416,34.468071 3.9905413,34.468071 C 6.4865388,34.468071 10.806543,34.372071 12.246541,34.276071 L 15.798541,32.452071 C 14.022543,32.404071 13.590537,32.404071 9.4625413,32.308071 C 14.886536,26.884076 15.174543,26.452065 16.710541,20.356071 C 16.758541,20.308071 16.806541,20.308071 16.806541,20.308071 C 17.334541,20.260071 17.622542,20.692072 17.910541,21.892071 C 19.734539,29.908063 21.318543,34.468074 23.286541,37.396071 C 25.350539,40.468068 28.182545,41.956071 31.974541,41.956071 C 34.662539,41.956071 36.294544,41.380069 38.982541,39.412071 L 36.630541,36.484071 C 35.094543,39.316068 33.750539,40.420071 31.878541,40.420071 C 29.622544,40.420071 27.462539,38.020066 25.494541,33.268071 C 24.246543,30.292074 22.758539,25.828065 20.790541,19.588071 C 23.526539,18.724072 24.630543,18.19607 26.118541,17.236071 C 28.374539,15.700073 29.670541,13.492069 29.670541,11.188071 C 29.670541,8.212074 27.270537,6.580071 22.902541,6.580071 C 22.326542,6.580071 21.12654,6.628071 20.118541,6.676071 L 20.502541,5.140071 L 16.134541,7.204071 C 8.2625492,8.5480696 4.0865413,12.196077 4.0865413,17.812071 C 4.0865413,19.06007 4.2305418,19.876073 4.7585413,21.652071 L 8.7905413,19.588071 C 8.4065417,17.956073 8.2625413,17.14007 8.2625413,16.036071 C 8.2625413,13.732073 8.9825428,11.90807 10.470541,10.516071 C 11.81454,9.3160722 13.158544,8.7880706 16.230541,8.404071 L 15.798541,10.132071 C 15.606542,10.90007 15.318541,12.004072 14.982541,13.492071 L 12.582541,22.996071 C 10.566543,31.108063 9.2705351,32.356071 3.0305413,32.308071 L 1.1585413,34.420071 M 19.782541,8.020071 L 21.270541,8.020071 C 24.246538,8.020071 25.494541,9.1240736 25.494541,11.764071 C 25.494541,14.164069 24.198539,16.468072 22.182541,17.716071 C 20.742543,18.58007 19.590539,18.916071 16.998541,19.252071 L 19.782541,8.020071 M 46.355791,27.892071 C 42.755795,31.012068 40.451789,32.356071 38.627791,32.356071 C 37.427793,32.356071 36.419791,31.54007 36.083791,30.292071 C 35.891792,29.524072 35.843791,28.99607 35.843791,27.604071 C 38.003789,26.260072 39.443794,25.252069 42.275791,23.140071 C 44.867789,21.172073 45.875791,19.588069 45.875791,17.428071 C 45.875791,15.748073 44.81979,14.740071 43.139791,14.740071 C 42.083792,14.740071 41.31579,14.980072 40.211791,15.604071 C 38.387793,16.66007 36.75579,17.956072 35.747791,19.108071 C 33.923793,21.316069 32.291791,26.596075 32.291791,30.484071 C 32.291791,33.316068 33.779794,35.092071 36.227791,35.092071 C 39.059788,35.092071 42.563795,33.076067 46.355791,29.284071 L 46.355791,27.892071 M 35.987791,25.876071 C 36.803791,20.740076 39.011793,16.756071 41.075791,16.756071 C 41.891791,16.756071 42.419791,17.572072 42.419791,18.724071 C 42.419791,21.124069 41.123786,22.564074 35.987791,25.876071"
     id="text2512" />
</svg>
