<?xml version="1.0" encoding="UTF-8" standalone="no"?>
<!-- Created with Inkscape (http://www.inkscape.org/) -->
<svg
   xmlns:svg="http://www.w3.org/2000/svg"
   xmlns="http://www.w3.org/2000/svg"
   xmlns:xlink="http://www.w3.org/1999/xlink"
   version="1.0"
   width="48"
   height="48"
   id="svg11300">
  <defs
     id="defs3">
    <linearGradient
       id="linearGradient5335">
      <stop
         id="stop5337"
         style="stop-color:#ffffff;stop-opacity:1"
         offset="0" />
      <stop
         id="stop5339"
         style="stop-color:#ffffff;stop-opacity:0"
         offset="1" />
    </linearGradient>
    <linearGradient
       id="linearGradient5313">
      <stop
         id="stop5315"
         style="stop-color:#99b8df;stop-opacity:1"
         offset="0" />
      <stop
         id="stop5333"
         style="stop-color:#3969a8;stop-opacity:1"
         offset="0.23705086" />
      <stop
         id="stop5317"
         style="stop-color:#4f7eba;stop-opacity:1"
         offset="0.54706067" />
      <stop
         id="stop5321"
         style="stop-color:#96b6d7;stop-opacity:1"
         offset="0.74557692" />
      <stop
         id="stop5331"
         style="stop-color:#a0bddc;stop-opacity:1"
         offset="0.87321436" />
      <stop
         id="stop5319"
         style="stop-color:#729fcf;stop-opacity:1"
         offset="1" />
    </linearGradient>
    <linearGradient
       id="linearGradient8152">
      <stop
         id="stop8154"
         style="stop-color:#3465a4;stop-opacity:1"
         offset="0" />
      <stop
         id="stop3174"
         style="stop-color:#4f7eba;stop-opacity:1"
         offset="0.5" />
      <stop
         id="stop8156"
         style="stop-color:#729fcf;stop-opacity:1"
         offset="1" />
    </linearGradient>
    <linearGradient
       id="linearGradient3207">
      <stop
         id="stop3209"
         style="stop-color:#eeeeec;stop-opacity:0.47058824"
         offset="0" />
      <stop
         id="stop3211"
         style="stop-color:#eeeeec;stop-opacity:0"
         offset="1" />
    </linearGradient>
    <linearGradient
       id="linearGradient2847">
      <stop
         id="stop2849"
         style="stop-color:#3465a4;stop-opacity:1"
         offset="0" />
      <stop
         id="stop2851"
         style="stop-color:#3465a4;stop-opacity:0"
         offset="1" />
    </linearGradient>
    <linearGradient
       id="linearGradient2831">
      <stop
         id="stop2833"
         style="stop-color:#3465a4;stop-opacity:1"
         offset="0" />
      <stop
         id="stop2855"
         style="stop-color:#5b86be;stop-opacity:1"
         offset="0.33333334" />
      <stop
         id="stop2835"
         style="stop-color:#83a8d8;stop-opacity:0"
         offset="1" />
    </linearGradient>
    <linearGradient
       id="linearGradient8662">
      <stop
         id="stop8664"
         style="stop-color:#000000;stop-opacity:1"
         offset="0" />
      <stop
         id="stop8666"
         style="stop-color:#000000;stop-opacity:0"
         offset="1" />
    </linearGradient>
    <linearGradient
       id="linearGradient3702">
      <stop
         id="stop3704"
         style="stop-color:#000000;stop-opacity:0"
         offset="0" />
      <stop
         id="stop3710"
         style="stop-color:#000000;stop-opacity:1"
         offset="0.5" />
      <stop
         id="stop3706"
         style="stop-color:#000000;stop-opacity:0"
         offset="1" />
    </linearGradient>
    <linearGradient
       id="linearGradient3688">
      <stop
         id="stop3690"
         style="stop-color:#000000;stop-opacity:1"
         offset="0" />
      <stop
         id="stop3692"
         style="stop-color:#000000;stop-opacity:0"
         offset="1" />
    </linearGradient>
    <linearGradient
       id="linearGradient3683">
      <stop
         id="stop3685"
         style="stop-color:#f6f6f5;stop-opacity:1"
         offset="0" />
      <stop
         id="stop3689"
         style="stop-color:#d3d7cf;stop-opacity:1"
         offset="1" />
    </linearGradient>
    <linearGradient
       id="linearGradient3613">
      <stop
         id="stop3615"
         style="stop-color:#888a85;stop-opacity:1"
         offset="0" />
      <stop
         id="stop3617"
         style="stop-color:#babdb6;stop-opacity:1"
         offset="1" />
    </linearGradient>
    <linearGradient
       id="linearGradient3741">
      <stop
         id="stop3743"
         style="stop-color:#ffffff;stop-opacity:1"
         offset="0" />
      <stop
         id="stop3745"
         style="stop-color:#ffffff;stop-opacity:0"
         offset="1" />
    </linearGradient>
    <linearGradient
       id="linearGradient3671">
      <stop
         id="stop3673"
         style="stop-color:#ffffff;stop-opacity:1"
         offset="0" />
      <stop
         id="stop3691"
         style="stop-color:#ffffff;stop-opacity:1"
         offset="0.47533694" />
      <stop
         id="stop3675"
         style="stop-color:#ffffff;stop-opacity:0"
         offset="1" />
    </linearGradient>
    <linearGradient
       id="linearGradient3520">
      <stop
         id="stop3522"
         style="stop-color:#000000;stop-opacity:0.41295546"
         offset="0" />
      <stop
         id="stop3524"
         style="stop-color:#000000;stop-opacity:0"
         offset="1" />
    </linearGradient>
    <linearGradient
       id="linearGradient3656">
      <stop
         id="stop3658"
         style="stop-color:#ffffff;stop-opacity:1"
         offset="0" />
      <stop
         id="stop3660"
         style="stop-color:#ffffff;stop-opacity:0"
         offset="1" />
    </linearGradient>
    <radialGradient
       cx="4.9929786"
       cy="43.5"
       r="2.5"
       fx="4.9929786"
       fy="43.5"
       id="radialGradient5794"
       xlink:href="#linearGradient3688"
       gradientUnits="userSpaceOnUse"
       gradientTransform="matrix(2.003784,0,0,1.4,27.98813,-17.4)" />
    <radialGradient
       cx="4.9929786"
       cy="43.5"
       r="2.5"
       fx="4.9929786"
       fy="43.5"
       id="radialGradient5796"
       xlink:href="#linearGradient3688"
       gradientUnits="userSpaceOnUse"
       gradientTransform="matrix(2.003784,0,0,1.4,-20.01187,-104.4)" />
    <linearGradient
       x1="25.058096"
       y1="47.027729"
       x2="25.058096"
       y2="39.999443"
       id="linearGradient5798"
       xlink:href="#linearGradient3702"
       gradientUnits="userSpaceOnUse" />
    <radialGradient
       cx="4.9929786"
       cy="43.5"
       r="2.5"
       fx="4.9929786"
       fy="43.5"
       id="radialGradient5800"
       xlink:href="#linearGradient3688"
       gradientUnits="userSpaceOnUse"
       gradientTransform="matrix(2.003784,0,0,1.4,27.98813,-17.4)" />
    <radialGradient
       cx="4.9929786"
       cy="43.5"
       r="2.5"
       fx="4.9929786"
       fy="43.5"
       id="radialGradient5802"
       xlink:href="#linearGradient3688"
       gradientUnits="userSpaceOnUse"
       gradientTransform="matrix(2.003784,0,0,1.4,-20.01187,-104.4)" />
    <linearGradient
       x1="25.058096"
       y1="47.027729"
       x2="25.058096"
       y2="39.999443"
       id="linearGradient5804"
       xlink:href="#linearGradient3702"
       gradientUnits="userSpaceOnUse" />
    <radialGradient
       cx="-30.249996"
       cy="35.357208"
       r="18.000002"
       fx="-30.249996"
       fy="35.357208"
       id="radialGradient5843"
       xlink:href="#linearGradient3683"
       gradientUnits="userSpaceOnUse"
       gradientTransform="matrix(3.9957492,0,0,1.9350367,0.62141,28.832578)" />
    <linearGradient
       x1="-47.5"
       y1="49.020683"
       x2="-62.75"
       y2="-22.502075"
       id="linearGradient5845"
       xlink:href="#linearGradient3613"
       gradientUnits="userSpaceOnUse"
       gradientTransform="translate(-90,60)" />
    <radialGradient
       cx="4"
       cy="5.2999997"
       r="17"
       fx="4"
       fy="5.2999997"
       id="radialGradient5810"
       xlink:href="#linearGradient3741"
       gradientUnits="userSpaceOnUse"
       gradientTransform="matrix(1.8860258,0,0,1.1764706,-3.5441033,-4.2352941)" />
    <linearGradient
       x1="58.282169"
       y1="70.751839"
       x2="61.181217"
       y2="67.799171"
       id="linearGradient6475"
       xlink:href="#linearGradient6469"
       gradientUnits="userSpaceOnUse"
       gradientTransform="translate(-180,0)" />
    <linearGradient
       id="linearGradient6469">
      <stop
         id="stop6471"
         style="stop-color:#000000;stop-opacity:1"
         offset="0" />
      <stop
         id="stop6473"
         style="stop-color:#000000;stop-opacity:0"
         offset="1" />
    </linearGradient>
    <radialGradient
       cx="-26.305403"
       cy="10.108011"
       r="7.0421038"
       fx="-26.305403"
       fy="10.108011"
       id="radialGradient5839"
       xlink:href="#linearGradient3671"
       gradientUnits="userSpaceOnUse"
       gradientTransform="matrix(0.4073362,-0.2798276,0.7510293,1.0932492,-115.18484,51.56213)" />
    <linearGradient
       x1="-18.588562"
       y1="11.052948"
       x2="-28.789402"
       y2="14.069944"
       id="linearGradient5836"
       xlink:href="#linearGradient3520"
       gradientUnits="userSpaceOnUse"
       gradientTransform="matrix(0.9223058,0,0,0.9185751,-92.447368,61.3257)" />
    <linearGradient
       x1="-26.753757"
       y1="11.566258"
       x2="-24.75"
       y2="9.687501"
       id="linearGradient5816"
       xlink:href="#linearGradient3656"
       gradientUnits="userSpaceOnUse" />
    <radialGradient
       cx="24.837126"
       cy="36.421127"
       r="15.644737"
       fx="24.837126"
       fy="36.421127"
       id="radialGradient3003"
       xlink:href="#linearGradient8662"
       gradientUnits="userSpaceOnUse"
       gradientTransform="matrix(1,0,0,0.536723,0,16.87306)" />
    <linearGradient
       x1="13.478554"
       y1="10.612206"
       x2="15.419417"
       y2="19.115122"
       id="linearGradient3005"
       xlink:href="#linearGradient2831"
       gradientUnits="userSpaceOnUse"
       gradientTransform="matrix(1.0818662,0,0,1.1166851,-0.8207482,-1.8622434)" />
    <linearGradient
       x1="37.128052"
       y1="29.729605"
       x2="37.40255"
       y2="26.800913"
       id="linearGradient3007"
       xlink:href="#linearGradient2847"
       gradientUnits="userSpaceOnUse"
       gradientTransform="matrix(-1.0818662,0,0,-1.1166851,50.09459,49.644854)" />
    <linearGradient
       x1="61.572533"
       y1="28.049652"
       x2="10.969182"
       y2="20.333939"
       id="linearGradient3009"
       xlink:href="#linearGradient5313"
       gradientUnits="userSpaceOnUse" />
    <linearGradient
       x1="49.412277"
       y1="37.904068"
       x2="11.881318"
       y2="19.776045"
       id="linearGradient3011"
       xlink:href="#linearGradient8152"
       gradientUnits="userSpaceOnUse" />
    <linearGradient
       x1="8.6878576"
       y1="25.265627"
       x2="52.122673"
       y2="25.265627"
       id="linearGradient3013"
       xlink:href="#linearGradient5335"
       gradientUnits="userSpaceOnUse" />
    <linearGradient
       x1="8.6878576"
       y1="25.265627"
       x2="52.122673"
       y2="25.265627"
       id="linearGradient3015"
       xlink:href="#linearGradient5335"
       gradientUnits="userSpaceOnUse" />
    <linearGradient
       x1="13.478554"
       y1="10.612206"
       x2="15.419417"
       y2="19.115122"
       id="linearGradient3017"
       xlink:href="#linearGradient2831"
       gradientUnits="userSpaceOnUse"
       gradientTransform="matrix(-1.0818662,0,0,-1.1166851,48.639854,47.862243)" />
    <linearGradient
       x1="37.128052"
       y1="29.729605"
       x2="37.40255"
       y2="26.800913"
       id="linearGradient3019"
       xlink:href="#linearGradient2847"
       gradientUnits="userSpaceOnUse"
       gradientTransform="matrix(1.0818662,0,0,1.1166851,-2.2754847,-3.644854)" />
    <linearGradient
       x1="61.572533"
       y1="28.049652"
       x2="10.969182"
       y2="20.333939"
       id="linearGradient3021"
       xlink:href="#linearGradient5313"
       gradientUnits="userSpaceOnUse" />
    <linearGradient
       x1="49.412277"
       y1="37.904068"
       x2="11.881318"
       y2="19.776045"
       id="linearGradient3023"
       xlink:href="#linearGradient8152"
       gradientUnits="userSpaceOnUse" />
    <linearGradient
       x1="5.8925977"
       y1="20.540676"
       x2="45.198921"
       y2="27.721035"
       id="linearGradient3025"
       xlink:href="#linearGradient3207"
       gradientUnits="userSpaceOnUse" />
  </defs>
  <g
     id="layer1">
    <g
       transform="matrix(0.190868,0.16126,0.16126,-0.190868,-0.719083,15.30613)"
       id="g2424"
       style="opacity:0.5;fill:none;fill-opacity:1;stroke:#ffffff;stroke-opacity:1" />
    <g
       id="g2955">
      <g
         id="layer6">
        <g
           transform="translate(150,-60)"
           id="g6015"
           style="display:inline">
          <rect
             width="48"
             height="48"
             x="-150"
             y="60"
             id="rect5504"
             style="opacity:0;fill:#000000;fill-opacity:1;stroke:none;stroke-width:1;stroke-miterlimit:4;stroke-dasharray:none;display:inline" />
          <g
             transform="matrix(1.0464281,0,0,0.8888889,-151.18572,65.72224)"
             id="g5508"
             style="opacity:0.65587045;display:inline">
            <g
               transform="matrix(1.052632,0,0,1.285713,-1.263158,-13.42854)"
               id="g5511"
               style="opacity:0.4">
              <rect
                 width="5"
                 height="7"
                 x="38"
                 y="40"
                 id="rect5513"
                 style="opacity:1;fill:url(#radialGradient5794);fill-opacity:1;stroke:none;stroke-width:1;stroke-linecap:round;stroke-linejoin:miter;stroke-miterlimit:4;stroke-dasharray:none;stroke-opacity:1" />
              <rect
                 width="5"
                 height="7"
                 x="-10"
                 y="-47"
                 transform="scale(-1,-1)"
                 id="rect5515"
                 style="opacity:1;fill:url(#radialGradient5796);fill-opacity:1;stroke:none;stroke-width:1;stroke-linecap:round;stroke-linejoin:miter;stroke-miterlimit:4;stroke-dasharray:none;stroke-opacity:1" />
              <rect
                 width="28"
                 height="7.0000005"
                 x="10"
                 y="40"
                 id="rect5517"
                 style="opacity:1;fill:url(#linearGradient5798);fill-opacity:1;stroke:none;stroke-width:1;stroke-linecap:round;stroke-linejoin:miter;stroke-miterlimit:4;stroke-dasharray:none;stroke-opacity:1" />
            </g>
          </g>
          <g
             transform="matrix(0.9548466,0,0,0.5555562,-148.98776,79.888875)"
             id="g5519"
             style="display:inline">
            <g
               transform="matrix(1.052632,0,0,1.285713,-1.263158,-13.42854)"
               id="g5521"
               style="opacity:0.4">
              <rect
                 width="5"
                 height="7"
                 x="38"
                 y="40"
                 id="rect5523"
                 style="opacity:1;fill:url(#radialGradient5800);fill-opacity:1;stroke:none;stroke-width:1;stroke-linecap:round;stroke-linejoin:miter;stroke-miterlimit:4;stroke-dasharray:none;stroke-opacity:1" />
              <rect
                 width="5"
                 height="7"
                 x="-10"
                 y="-47"
                 transform="scale(-1,-1)"
                 id="rect5525"
                 style="opacity:1;fill:url(#radialGradient5802);fill-opacity:1;stroke:none;stroke-width:1;stroke-linecap:round;stroke-linejoin:miter;stroke-miterlimit:4;stroke-dasharray:none;stroke-opacity:1" />
              <rect
                 width="28"
                 height="7.0000005"
                 x="10"
                 y="40"
                 id="rect5527"
                 style="opacity:1;fill:url(#linearGradient5804);fill-opacity:1;stroke:none;stroke-width:1;stroke-linecap:round;stroke-linejoin:miter;stroke-miterlimit:4;stroke-dasharray:none;stroke-opacity:1" />
            </g>
          </g>
          <path
             d="M -141.47614,63.5 C -141.47614,63.5 -124,63.5 -122.5,63.5 C -118.62295,63.572942 -116,66 -113.5,68.5 C -111,71 -108.89232,73.752625 -108.5,77.5 C -108.5,79 -108.5,102.47614 -108.5,102.47614 C -108.5,103.59736 -109.40264,104.5 -110.52385,104.5 L -141.47614,104.5 C -142.59736,104.5 -143.5,103.59736 -143.5,102.47614 L -143.5,65.523858 C -143.5,64.402641 -142.59736,63.5 -141.47614,63.5 z"
             id="path5529"
             style="fill:url(#radialGradient5843);fill-opacity:1;stroke:url(#linearGradient5845);stroke-width:1;stroke-miterlimit:4;display:inline" />
          <path
             d="M 8.53125,4 C 7.6730803,4 7,4.6730802 7,5.53125 L 7,42.46875 C 7,43.32692 7.6730802,44 8.53125,44 L 39.46875,44 C 40.326919,44 41,43.326918 41,42.46875 C 41,42.46875 41,19 41,17.5 C 41,16.10803 40.513021,13.200521 38.65625,11.34375 C 36.65625,9.34375 35.65625,8.34375 33.65625,6.34375 C 31.799479,4.4869792 28.89197,4 27.5,4 C 26,4 8.53125,4 8.53125,4 z"
             transform="translate(-150,60)"
             id="path5531"
             style="opacity:0.68016196;fill:url(#radialGradient5810);fill-opacity:1;stroke:none;stroke-width:1;stroke-miterlimit:4;display:inline" />
          <path
             d="M -138.59375,69.125 C -138.81243,69.125 -139,69.312565 -139,69.53125 C -139,69.749934 -138.81243,69.937499 -138.59375,69.9375 L -117.40625,69.9375 C -117.18757,69.9375 -117,69.749934 -117,69.53125 C -117,69.312566 -117.18757,69.125 -117.40625,69.125 L -138.59375,69.125 z M -138.53125,71.0625 C -138.79094,71.0625 -139,71.271563 -139,71.53125 C -139,71.790937 -138.79094,72 -138.53125,72 L -116.46875,72 C -116.20906,72 -116,71.790937 -116,71.53125 C -116,71.271563 -116.20906,71.0625 -116.46875,71.0625 L -138.53125,71.0625 z M -138.53125,73.0625 C -138.79094,73.0625 -139,73.271563 -139,73.53125 C -139,73.790937 -138.79094,74 -138.53125,74 L -113.34375,74 C -113.08406,74 -112.875,73.790937 -112.875,73.53125 C -112.875,73.271563 -113.08406,73.0625 -113.34375,73.0625 L -138.53125,73.0625 z M -138.53125,75.0625 C -138.79094,75.0625 -139,75.271563 -139,75.53125 C -139,75.790937 -138.79094,76 -138.53125,76 L -113.34375,76 C -113.08406,76 -112.875,75.790937 -112.875,75.53125 C -112.875,75.271563 -113.08406,75.0625 -113.34375,75.0625 L -138.53125,75.0625 z M -138.53125,77.0625 C -138.79094,77.0625 -139,77.271563 -139,77.53125 C -139,77.790937 -138.79094,78 -138.53125,78 L -113.34375,78 C -113.08406,78 -112.875,77.790937 -112.875,77.53125 C -112.875,77.271563 -113.08406,77.0625 -113.34375,77.0625 L -138.53125,77.0625 z"
             id="rect5857"
             style="opacity:0.15;fill:url(#linearGradient6475);fill-opacity:1;fill-rule:evenodd;stroke:none;stroke-width:0.99999982px;stroke-linecap:round;stroke-linejoin:round;marker:none;marker-start:none;marker-mid:none;marker-end:none;stroke-miterlimit:4;stroke-dasharray:none;stroke-dashoffset:0;stroke-opacity:1;visibility:visible;display:inline;overflow:visible" />
          <path
             d="M -122.5,64 C -123.88889,64 -122.54207,64.497088 -121.15625,65.125 C -119.77043,65.752912 -116.18337,68.340052 -117,72 C -112.67669,71.569417 -110.32087,75.122378 -110,76.28125 C -109.67913,77.440122 -109,78.888889 -109,77.5 C -108.97167,73.694419 -111.84543,71.068299 -113.84375,68.84375 C -115.84207,66.619201 -118.84621,64.476761 -122.5,64 z"
             id="path5533"
             style="fill:url(#radialGradient5839);fill-opacity:1;stroke:none;stroke-width:1;stroke-miterlimit:4;display:inline" />
          <path
             d="M -121.39912,65.014353 C -120.47682,65.014353 -118.39068,71.210015 -119.31298,75.343603 C -115.01802,74.915844 -110.4596,75.43178 -110,76.28125 C -110.32087,75.122378 -112.67669,71.569417 -117,72 C -116.13534,68.124761 -120.18657,65.382702 -121.39912,65.014353 z"
             id="path5535"
             style="opacity:0.87854249;fill:url(#linearGradient5836);fill-opacity:1;stroke:none;stroke-width:1;stroke-miterlimit:4;display:inline" />
          <path
             d="M -51.46875,4.5 C -52.051916,4.5 -52.5,4.9480842 -52.5,5.53125 L -52.5,42.46875 C -52.5,43.051915 -52.051914,43.5 -51.46875,43.5 L -20.53125,43.5 C -19.948085,43.5 -19.5,43.051914 -19.5,42.46875 C -19.5,42.46875 -19.5,19 -19.5,17.5 C -19.5,16.220971 -19.980469,13.394531 -21.6875,11.6875 C -23.6875,9.6875 -24.6875,8.6875 -26.6875,6.6875 C -28.394531,4.9804687 -31.220971,4.5 -32.5,4.5 C -34,4.5 -51.46875,4.5 -51.46875,4.5 z"
             transform="translate(-90,60)"
             id="path5537"
             style="fill:none;fill-opacity:1;stroke:url(#linearGradient5816);stroke-width:1;stroke-miterlimit:4;display:inline" />
          <g
             transform="matrix(0.928889,0,0,1,-148.28889,60)"
             id="g5539"
             style="opacity:0.15;fill:#000000;display:inline">
            <rect
               width="28.125"
               height="0.9375"
               rx="0.50463516"
               ry="0.46875"
               x="10"
               y="19.0625"
               id="rect5549"
               style="opacity:1;fill:#000000;fill-opacity:1;fill-rule:evenodd;stroke:none;stroke-width:0.99999982px;stroke-linecap:round;stroke-linejoin:round;marker:none;marker-start:none;marker-mid:none;marker-end:none;stroke-miterlimit:4;stroke-dasharray:none;stroke-dashoffset:0;stroke-opacity:1;visibility:visible;display:inline;overflow:visible" />
            <rect
               width="28.125"
               height="0.9375"
               rx="0.50463516"
               ry="0.46875"
               x="10"
               y="21.0625"
               id="rect5553"
               style="opacity:1;fill:#000000;fill-opacity:1;fill-rule:evenodd;stroke:none;stroke-width:0.99999982px;stroke-linecap:round;stroke-linejoin:round;marker:none;marker-start:none;marker-mid:none;marker-end:none;stroke-miterlimit:4;stroke-dasharray:none;stroke-dashoffset:0;stroke-opacity:1;visibility:visible;display:inline;overflow:visible" />
            <rect
               width="28.125"
               height="0.9375"
               rx="0.50463516"
               ry="0.46875"
               x="10"
               y="23.0625"
               id="rect5555"
               style="opacity:1;fill:#000000;fill-opacity:1;fill-rule:evenodd;stroke:none;stroke-width:0.99999982px;stroke-linecap:round;stroke-linejoin:round;marker:none;marker-start:none;marker-mid:none;marker-end:none;stroke-miterlimit:4;stroke-dasharray:none;stroke-dashoffset:0;stroke-opacity:1;visibility:visible;display:inline;overflow:visible" />
            <rect
               width="28.125"
               height="0.9375"
               rx="0.50463516"
               ry="0.46875"
               x="10"
               y="25.0625"
               id="rect5557"
               style="opacity:1;fill:#000000;fill-opacity:1;fill-rule:evenodd;stroke:none;stroke-width:0.99999982px;stroke-linecap:round;stroke-linejoin:round;marker:none;marker-start:none;marker-mid:none;marker-end:none;stroke-miterlimit:4;stroke-dasharray:none;stroke-dashoffset:0;stroke-opacity:1;visibility:visible;display:inline;overflow:visible" />
            <rect
               width="28.125"
               height="0.9375"
               rx="0.50463516"
               ry="0.46875"
               x="10"
               y="27.0625"
               id="rect5559"
               style="opacity:1;fill:#000000;fill-opacity:1;fill-rule:evenodd;stroke:none;stroke-width:0.99999982px;stroke-linecap:round;stroke-linejoin:round;marker:none;marker-start:none;marker-mid:none;marker-end:none;stroke-miterlimit:4;stroke-dasharray:none;stroke-dashoffset:0;stroke-opacity:1;visibility:visible;display:inline;overflow:visible" />
            <rect
               width="28.125"
               height="0.9375"
               rx="0.50463516"
               ry="0.46875"
               x="10"
               y="29.0625"
               id="rect5561"
               style="opacity:1;fill:#000000;fill-opacity:1;fill-rule:evenodd;stroke:none;stroke-width:0.99999982px;stroke-linecap:round;stroke-linejoin:round;marker:none;marker-start:none;marker-mid:none;marker-end:none;stroke-miterlimit:4;stroke-dasharray:none;stroke-dashoffset:0;stroke-opacity:1;visibility:visible;display:inline;overflow:visible" />
            <rect
               width="28.125"
               height="0.9375"
               rx="0.50463516"
               ry="0.46875"
               x="10"
               y="31.0625"
               id="rect5563"
               style="opacity:1;fill:#000000;fill-opacity:1;fill-rule:evenodd;stroke:none;stroke-width:0.99999982px;stroke-linecap:round;stroke-linejoin:round;marker:none;marker-start:none;marker-mid:none;marker-end:none;stroke-miterlimit:4;stroke-dasharray:none;stroke-dashoffset:0;stroke-opacity:1;visibility:visible;display:inline;overflow:visible" />
            <rect
               width="28.125"
               height="0.9375"
               rx="0.50463516"
               ry="0.46875"
               x="10"
               y="33.0625"
               id="rect5565"
               style="opacity:1;fill:#000000;fill-opacity:1;fill-rule:evenodd;stroke:none;stroke-width:0.99999982px;stroke-linecap:round;stroke-linejoin:round;marker:none;marker-start:none;marker-mid:none;marker-end:none;stroke-miterlimit:4;stroke-dasharray:none;stroke-dashoffset:0;stroke-opacity:1;visibility:visible;display:inline;overflow:visible" />
            <rect
               width="28.125"
               height="0.9375"
               rx="0.50463516"
               ry="0.46875"
               x="10"
               y="35.0625"
               id="rect5567"
               style="opacity:1;fill:#000000;fill-opacity:1;fill-rule:evenodd;stroke:none;stroke-width:0.99999982px;stroke-linecap:round;stroke-linejoin:round;marker:none;marker-start:none;marker-mid:none;marker-end:none;stroke-miterlimit:4;stroke-dasharray:none;stroke-dashoffset:0;stroke-opacity:1;visibility:visible;display:inline;overflow:visible" />
            <rect
               width="13.8125"
               height="0.9375"
               rx="0.50463516"
               ry="0.46875"
               x="10"
               y="37.0625"
               id="rect5569"
               style="opacity:1;fill:#000000;fill-opacity:1;fill-rule:evenodd;stroke:none;stroke-width:0.99999982px;stroke-linecap:round;stroke-linejoin:round;marker:none;marker-start:none;marker-mid:none;marker-end:none;stroke-miterlimit:4;stroke-dasharray:none;stroke-dashoffset:0;stroke-opacity:1;visibility:visible;display:inline;overflow:visible" />
          </g>
        </g>
      </g>
      <g
         id="g2987"
         style="display:inline" />
      <g
         id="layer5"
         style="display:inline" />
    </g>
    <g
       transform="matrix(0.5969356,0,0,0.5969356,19.45561,19.455589)"
       id="g2990">
      <path
         d="M 40.481863,36.421127 A 15.644737,8.3968935 0 1 1 9.1923885,36.421127 A 15.644737,8.3968935 0 1 1 40.481863,36.421127 z"
         transform="matrix(-1.5146484,0,0,-0.7917058,60.923237,69.528413)"
         id="path8660"
         style="opacity:0.36111109;fill:url(#radialGradient3003);fill-opacity:1;fill-rule:evenodd;stroke:none;stroke-width:1;stroke-linecap:butt;stroke-linejoin:miter;marker:none;marker-start:none;marker-mid:none;marker-end:none;stroke-miterlimit:10;stroke-dasharray:none;stroke-dashoffset:0;stroke-opacity:1;visibility:visible;display:inline;overflow:visible" />
      <path
         d="M 20.478497,9.7711467 C 20.478497,9.7711467 12.632988,7.9438002 14.368023,21.024298 L 5.1028658,21.024298 C 5.1028658,21.024298 6.0085332,7.5377773 20.478497,9.7711467 z"
         id="path2865"
         style="opacity:0.51807233;fill:url(#linearGradient3005);fill-opacity:1;fill-rule:nonzero;stroke:url(#linearGradient3007);stroke-width:1.04300582;stroke-linecap:butt;stroke-linejoin:miter;marker:none;marker-start:none;marker-mid:none;marker-end:none;stroke-miterlimit:4;stroke-dasharray:none;stroke-dashoffset:0;stroke-opacity:1;visibility:visible;display:block;overflow:visible" />
      <g
         transform="matrix(-0.6129282,-0.5154381,-0.5178496,0.610074,58.686164,13.911361)"
         id="g1878"
         style="fill:url(#linearGradient3011);fill-opacity:1;stroke:#204a87;stroke-width:1.24932528;stroke-miterlimit:4;stroke-dasharray:none;stroke-opacity:1">
        <path
           d="M 45.862102,50.273522 C 62.924432,34.96305 47.150241,15.929711 22.760624,12.513943 L 22.113577,3.1522143 L 7.613534,20.510135 L 22.703188,33.23244 C 22.703188,33.23244 22.454828,23.347105 22.454828,23.347105 C 41.289895,24.339584 54.775794,35.675041 45.862102,50.273522 z"
           id="path1880"
           style="opacity:1;fill:url(#linearGradient3009);fill-opacity:1;fill-rule:nonzero;stroke:#204a87;stroke-width:1.24977946;stroke-linecap:butt;stroke-linejoin:miter;marker:none;marker-start:none;marker-mid:none;marker-end:none;stroke-miterlimit:4;stroke-dasharray:none;stroke-dashoffset:0;stroke-opacity:1;visibility:visible;display:block;overflow:visible" />
      </g>
      <g
         transform="matrix(-0.612811,-0.5154406,-0.5177506,0.6100769,58.675633,13.911365)"
         id="g3185"
         style="opacity:0.54819282;fill:none;fill-opacity:1;stroke:url(#linearGradient3015);stroke-width:1.24928653;stroke-miterlimit:4;stroke-dasharray:none;stroke-opacity:1">
        <path
           d="M 21.0625,6.3125 L 9.3125,20.34375 L 21.46875,30.59375 C 21.39688,27.754893 21.28125,23.375 21.28125,23.375 C 21.27502,23.044409 21.405774,22.725958 21.642519,22.495132 C 21.879264,22.264306 22.200923,22.141654 22.53125,22.15625 C 32.170255,22.667629 40.441027,25.773015 45.28125,30.875 C 48.676469,34.453835 50.102049,39.131532 49.125,44.21875 C 50.368339,42.205641 51.107893,40.194594 51.375,38.21875 C 51.870422,34.55401 50.856988,30.946652 48.5625,27.59375 C 43.973525,20.887947 34.236978,15.361613 22.3125,13.6875 C 21.732114,13.606381 21.295727,13.117098 21.28125,12.53125 L 21.0625,6.3125 z"
           transform="translate(1.0080026e-6,8.5223784e-7)"
           id="path3189"
           style="opacity:1;fill:none;fill-opacity:1;fill-rule:nonzero;stroke:url(#linearGradient3013);stroke-width:1.24928653;stroke-linecap:butt;stroke-linejoin:miter;marker:none;marker-start:none;marker-mid:none;marker-end:none;stroke-miterlimit:4;stroke-dasharray:none;stroke-dashoffset:0;stroke-opacity:1;visibility:visible;display:block;overflow:visible" />
      </g>
      <path
         d="M 27.340608,36.228853 C 27.340608,36.228853 35.186117,38.0562 33.451082,24.975702 L 42.71624,24.975702 C 42.71624,24.975702 41.810572,38.462223 27.340608,36.228853 z"
         id="path8160"
         style="opacity:0.51807233;fill:url(#linearGradient3017);fill-opacity:1;fill-rule:nonzero;stroke:url(#linearGradient3019);stroke-width:1.04300582;stroke-linecap:butt;stroke-linejoin:miter;marker:none;marker-start:none;marker-mid:none;marker-end:none;stroke-miterlimit:4;stroke-dasharray:none;stroke-dashoffset:0;stroke-opacity:1;visibility:visible;display:block;overflow:visible" />
      <g
         transform="matrix(0.6101332,0.5154999,0.5154881,-0.6101471,-10.618024,32.088556)"
         id="g8162"
         style="fill:url(#linearGradient3023);fill-opacity:1;stroke:#204a87;stroke-width:1.24932528;stroke-miterlimit:4;stroke-dasharray:none;stroke-opacity:1">
        <path
           d="M 45.862102,50.273522 C 62.924432,34.96305 47.150241,15.929711 22.760624,12.513943 L 22.113577,3.1522141 L 7.6135337,20.510135 L 22.703188,33.23244 C 22.703188,33.23244 22.454828,23.347105 22.454828,23.347105 C 41.289895,24.339584 54.775794,35.675041 45.862102,50.273522 z"
           id="path8164"
           style="opacity:1;fill:url(#linearGradient3021);fill-opacity:1;fill-rule:nonzero;stroke:#204a87;stroke-width:1.25256371;stroke-linecap:butt;stroke-linejoin:miter;marker:none;marker-start:none;marker-mid:none;marker-end:none;stroke-miterlimit:4;stroke-dasharray:none;stroke-dashoffset:0;stroke-opacity:1;visibility:visible;display:block;overflow:visible;enable-background:accumulate" />
      </g>
      <g
         transform="matrix(0.6128107,0.5154406,0.5177504,-0.6100769,-10.856505,32.088635)"
         id="g8166"
         style="fill:none;fill-opacity:1;stroke:#204a87;stroke-width:1.24928653;stroke-miterlimit:4;stroke-dasharray:none;stroke-opacity:1">
        <path
           d="M 21.0625,6.3125 L 9.3125,20.34375 L 21.46875,30.59375 C 21.39688,27.754893 21.28125,23.375 21.28125,23.375 C 21.27502,23.044409 21.405774,22.725958 21.642519,22.495132 C 21.879264,22.264306 22.200923,22.141654 22.53125,22.15625 C 32.170255,22.667629 40.441027,25.773015 45.28125,30.875 C 48.676469,34.453835 50.102049,39.131532 49.125,44.21875 C 50.368339,42.205641 51.107893,40.194594 51.375,38.21875 C 51.870422,34.55401 50.856988,30.946652 48.5625,27.59375 C 43.973525,20.887947 34.236978,15.361613 22.3125,13.6875 C 21.732114,13.606381 21.295727,13.117098 21.28125,12.53125 L 21.0625,6.3125 z"
           transform="matrix(0.9972307,-2.4605589e-3,-2.4605593e-3,0.9980642,0.2457029,0.2077351)"
           id="path8168"
           style="opacity:1;fill:none;fill-opacity:1;fill-rule:nonzero;stroke:url(#linearGradient3025);stroke-width:1.2497319;stroke-linecap:butt;stroke-linejoin:miter;marker:none;marker-start:none;marker-mid:none;marker-end:none;stroke-miterlimit:4;stroke-dasharray:none;stroke-dashoffset:0;stroke-opacity:0.70588235;visibility:visible;display:block;overflow:visible" />
      </g>
    </g>
  </g>
</svg>
